<svg version="1.1" id="Layer_1" xmlns="http://www.w3.org/2000/svg" xmlns:xlink="http://www.w3.org/1999/xlink" x="0px" y="0px"
	 width="100%" viewBox="0 0 1230 510" enable-background="new 0 0 1230 510" xml:space="preserve">
<path fill="#FCFDFE" opacity="1.000000" stroke="none" 
	d="
M941.000000,511.000000 
	C627.333374,511.000000 314.166718,511.000000 1.000042,511.000000 
	C1.000028,341.000031 1.000028,171.000061 1.000014,1.000065 
	C410.999969,1.000043 820.999939,1.000043 1231.000000,1.000022 
	C1231.000000,170.999939 1231.000000,340.999878 1231.000000,510.999908 
	C1134.500000,511.000000 1038.000000,511.000000 941.000000,511.000000 
M1161.485962,413.951599 
	C1161.657227,413.895966 1161.828369,413.840302 1162.896729,413.911957 
	C1165.618164,413.877075 1168.339722,413.842194 1171.664795,414.134857 
	C1173.456177,414.659363 1175.247559,415.183868 1177.314209,416.053528 
	C1177.314209,416.053528 1177.748047,416.134888 1178.048706,416.643311 
	C1178.705811,417.031769 1179.362915,417.420197 1180.222656,418.101288 
	C1180.222656,418.101288 1180.563354,418.203644 1180.745117,418.741028 
	C1181.046265,418.953125 1181.347534,419.165222 1181.745361,419.441162 
	C1181.745361,419.441162 1181.633179,419.410034 1181.853760,420.045990 
	C1183.492188,422.346222 1185.020264,424.735870 1186.795654,426.924957 
	C1189.225220,429.920624 1192.418823,431.158356 1196.122925,429.673676 
	C1200.009521,428.115906 1202.161133,424.837189 1200.920654,420.920410 
	C1199.770996,417.290436 1197.216919,414.105286 1195.081299,410.842499 
	C1195.081299,410.842499 1195.304199,410.777069 1195.065674,410.148804 
	C1187.710693,402.950226 1178.525513,400.564880 1168.639893,400.571716 
	C1157.741089,400.579224 1147.092896,401.829468 1138.055664,409.930695 
	C1137.712402,410.307159 1137.369019,410.683624 1136.405396,411.278870 
	C1124.829102,423.054047 1122.205444,437.248993 1125.093140,453.635864 
	C1125.214478,454.076324 1125.335693,454.516754 1125.349243,455.653748 
	C1125.809692,456.965851 1126.270142,458.277924 1126.862183,460.286041 
	C1129.936035,470.109619 1136.011353,477.375519 1145.785034,482.361023 
	C1164.066162,490.127747 1181.571899,487.704742 1198.181885,477.753113 
	C1200.756104,476.210815 1203.185547,472.500916 1203.525513,469.545319 
	C1204.298950,462.821960 1204.202637,455.892944 1203.466064,449.156189 
	C1203.190796,446.638214 1200.319458,442.563263 1198.345947,442.386200 
	C1189.143311,441.560669 1179.827637,441.567291 1170.585327,441.991974 
	C1168.846924,442.071869 1166.348267,445.213104 1165.894653,447.308472 
	C1165.544678,448.924347 1167.849243,451.114929 1169.373413,453.587921 
	C1170.254639,453.671814 1171.135864,453.755707 1172.910889,454.092255 
	C1177.989990,454.248383 1183.069092,454.404510 1188.061890,454.768341 
	C1188.061890,454.768341 1188.229370,454.918549 1188.071655,455.798798 
	C1188.132812,457.877716 1188.193970,459.956635 1188.116089,462.815399 
	C1188.169434,463.866028 1188.222778,464.916626 1188.019287,466.690918 
	C1177.992554,476.073944 1160.137451,475.775665 1148.000000,466.000000 
	C1148.000000,466.000000 1147.977905,466.012329 1147.791260,465.332764 
	C1145.815552,460.894806 1143.839966,456.456848 1141.939819,451.349762 
	C1141.849731,450.913910 1141.759766,450.478058 1141.790894,449.109497 
	C1140.820923,437.530762 1142.238159,426.671295 1151.705811,417.955261 
	C1152.126343,417.601166 1152.546753,417.247070 1153.686279,416.801575 
	C1156.031250,415.825958 1158.376343,414.850342 1160.853882,413.975067 
	C1160.853882,413.975067 1160.956665,413.844452 1161.485962,413.951599 
M372.122284,484.263275 
	C372.670410,483.187683 373.218506,482.112122 374.079102,480.249329 
	C374.342773,477.784698 374.825134,475.320892 374.834900,472.855255 
	C374.902863,455.734039 374.872681,438.612457 374.873932,421.490967 
	C374.874054,419.739777 374.873962,417.988586 374.873962,415.910553 
	C381.559418,415.910553 387.521393,415.909027 393.483368,415.911072 
	C397.553070,415.912476 400.852295,414.505280 401.603363,410.167480 
	C402.340607,405.909271 400.175903,403.235474 395.046814,402.040619 
	C375.710266,402.092102 356.373749,402.143616 336.314026,402.163116 
	C332.291138,403.457306 330.202576,406.109436 331.040070,410.394714 
	C331.909668,414.844238 335.304779,415.878632 339.266785,415.913879 
	C345.390656,415.968384 351.514404,416.034790 357.614868,416.425507 
	C357.658844,416.661438 357.788177,416.833374 357.977478,416.978882 
	C357.977478,416.978882 358.015106,417.004181 357.836670,417.925751 
	C357.827026,436.721252 357.799774,455.516785 357.833801,474.312195 
	C357.837341,476.277313 358.203278,478.241760 358.378723,480.646973 
	C358.378723,480.646973 358.691223,480.958130 358.737305,481.705292 
	C362.225067,487.317291 366.394745,488.236694 371.466614,484.431213 
	C371.466614,484.431213 371.535858,484.474762 372.122284,484.263275 
M193.068207,465.098053 
	C193.068207,465.098053 193.153000,465.212769 194.066818,465.189484 
	C203.640671,465.188263 213.216614,465.298828 222.787125,465.119293 
	C225.745193,465.063782 227.294006,466.014038 228.258987,468.814331 
	C229.577393,472.640228 231.304947,476.325073 232.995712,480.770477 
	C236.008896,486.204987 239.270752,487.826691 243.693420,486.089050 
	C248.196381,484.319885 249.883255,480.114105 247.964401,474.390839 
	C246.485580,469.980011 244.557892,465.719513 242.825089,461.394043 
	C236.082092,444.561951 229.360153,427.721375 222.583023,410.903015 
	C219.370193,402.929962 215.545837,400.340088 208.515564,400.726227 
	C201.743118,401.098206 199.358719,406.011444 197.271774,411.213440 
	C192.008835,424.332184 186.827957,437.483917 181.641998,450.633392 
	C178.529190,458.526215 175.334091,466.390625 172.430389,474.360474 
	C170.393753,479.950470 172.491791,484.783966 177.169189,486.300537 
	C181.863739,487.822601 185.040176,485.773438 187.508484,479.557404 
	C188.347763,476.704224 189.187027,473.851044 190.182449,470.663055 
	C190.182449,470.663055 190.115341,470.299805 190.750168,470.042358 
	C191.565872,468.414520 192.381561,466.786682 193.068207,465.098053 
M803.112305,39.053356 
	C801.125366,46.969231 799.126465,54.882175 797.196533,62.811932 
	C797.121521,63.119938 797.708191,63.588970 798.038696,64.674660 
	C797.913879,65.114761 797.789062,65.554871 797.069580,66.399078 
	C796.339172,70.590553 795.608765,74.782021 794.936279,79.639656 
	C794.844727,80.073853 794.753174,80.508049 794.007812,81.140762 
	C793.660583,83.424217 793.313354,85.707672 793.031433,88.669701 
	C792.937256,89.110352 792.843018,89.550995 792.141418,90.384720 
	C791.476074,94.009331 790.810791,97.633942 790.156799,101.863739 
	C790.023804,102.242226 789.890869,102.620712 789.108948,103.337189 
	C785.706421,108.291176 786.385071,113.962685 786.301392,120.023201 
	C786.177368,120.351555 786.053345,120.679909 785.364868,121.447052 
	C784.921814,124.298653 784.478760,127.150253 784.074707,130.679764 
	C783.982239,131.120270 783.889771,131.560776 783.259094,132.471741 
	C781.837402,139.641846 780.415710,146.811951 778.997864,154.650131 
	C778.903381,155.082504 778.808899,155.514877 778.084045,156.098892 
	C778.018311,157.388489 777.952515,158.678101 777.926575,160.709839 
	C777.544434,162.139862 777.162231,163.569885 776.256775,165.491684 
	C775.508850,169.662567 774.760925,173.833466 773.986755,178.502808 
	C773.986755,178.502808 773.826111,178.975418 773.093994,179.184219 
	C772.397705,184.123199 771.701355,189.062180 771.063110,194.758957 
	C770.941895,195.502762 770.820679,196.246567 770.206299,197.268799 
	C770.117554,198.171875 770.028870,199.074936 769.998962,200.647018 
	C769.909302,201.082718 769.819641,201.518417 769.067444,202.125168 
	C769.026123,203.744614 768.984802,205.364044 769.019287,207.650589 
	C768.953796,208.091873 768.888367,208.533157 768.089661,209.190369 
	C767.715149,213.123627 767.340698,217.056900 767.033386,221.668686 
	C766.936890,222.110397 766.840454,222.552109 766.117371,223.427704 
	C765.768860,224.150543 765.181458,224.850876 765.110779,225.599915 
	C764.667908,230.300613 764.581299,235.048264 763.884155,239.706680 
	C763.462524,242.524002 762.153076,245.208450 761.060913,247.146912 
	C761.003967,245.499512 760.946960,243.852112 761.044128,241.386780 
	C760.747986,239.596512 760.451782,237.806244 759.998047,235.368256 
	C759.986877,234.924133 759.975708,234.479996 760.064392,233.319580 
	C759.772827,232.215012 759.481323,231.110443 759.004639,229.346893 
	C759.016663,228.892868 759.028687,228.438843 759.562378,227.472641 
	C759.360107,225.029312 759.400391,222.535614 758.905396,220.153091 
	C757.849365,215.069885 756.515808,210.044296 755.055298,204.278381 
	C755.011719,203.524689 754.968140,202.771011 755.456787,201.603668 
	C754.712646,199.068848 753.968567,196.534012 753.006897,193.355042 
	C752.994690,192.903397 752.982483,192.451736 753.501831,191.554184 
	C752.745667,189.035660 751.989502,186.517136 750.991272,183.439957 
	C750.948792,183.038864 750.906372,182.637772 750.993347,181.612778 
	C750.722351,181.076172 750.451355,180.539566 749.980469,179.374420 
	C749.972717,178.935257 749.964905,178.496094 750.060791,177.181381 
	C748.468384,170.786072 746.875977,164.390762 745.031372,157.224487 
	C736.380005,119.104324 727.659180,80.999588 719.191101,42.838753 
	C718.397034,39.260426 716.783142,38.876945 713.782104,38.882919 
	C678.286743,38.953594 642.791138,38.924179 607.295654,38.942802 
	C605.880615,38.943542 604.465637,39.160664 603.256226,39.260071 
	C603.256226,138.368042 603.256226,236.910645 603.256226,335.341187 
	C626.413025,335.341187 649.126038,335.341187 672.153870,335.341187 
	C672.153870,295.759216 672.452698,256.607880 672.069702,217.463242 
	C671.687683,178.420364 670.622375,139.384171 669.856628,100.345055 
	C670.423218,100.281822 670.989868,100.218597 671.556458,100.155365 
	C672.022522,102.191429 672.551453,104.215408 672.944946,106.265404 
	C677.520874,130.104416 681.137878,154.173965 686.829590,177.742752 
	C699.249512,229.172424 712.755493,280.339478 725.677795,331.649078 
	C726.417725,334.587158 727.316223,335.841003 730.501099,335.824066 
	C752.830994,335.705139 775.162109,335.706207 797.492126,335.809052 
	C800.602295,335.823364 801.609436,334.784790 802.316895,331.709839 
	C811.041199,293.786835 820.353516,255.995377 828.722595,217.995667 
	C834.511414,191.711609 839.341125,165.204956 844.057007,138.701294 
	C846.092834,127.259872 846.705261,115.568222 848.120361,104.009338 
	C848.287231,102.646362 849.444824,101.404663 850.143066,100.106766 
	C850.676270,101.305214 851.643860,102.496040 851.665039,103.703468 
	C851.743896,108.196075 851.426636,112.693817 851.408936,117.190231 
	C851.128784,188.343460 850.869690,259.496796 850.626770,330.650146 
	C850.621399,332.232758 850.861572,333.816193 850.987305,335.399261 
	C874.267761,335.399261 897.005310,335.399261 920.105225,335.399261 
	C920.105225,333.210022 920.105347,331.394348 920.105225,329.578705 
	C920.100464,236.923645 920.097595,144.268585 920.084045,51.613529 
	C920.083435,47.449482 919.986084,43.285450 919.459290,38.425873 
	C918.322998,38.266762 917.186707,37.969223 916.050354,37.968620 
	C880.096680,37.949516 844.143005,37.948891 808.189392,38.003330 
	C806.785339,38.005459 805.382141,38.576611 803.934326,38.983990 
	C803.934326,38.983990 803.837891,38.930000 803.112305,39.053356 
M117.713539,297.795624 
	C119.852715,289.882507 121.991882,281.969360 124.573502,274.001526 
	C124.573502,274.001526 124.982918,273.825073 125.505157,273.951080 
	C125.673645,273.890381 125.842125,273.829712 126.938972,273.891388 
	C154.912079,273.950714 182.885193,274.010040 210.971085,274.878815 
	C215.707916,293.764557 220.495834,312.637787 225.132599,331.548096 
	C225.929657,334.798798 227.272324,336.009735 230.864029,335.980408 
	C254.690353,335.785889 278.519073,335.889740 302.347015,335.878723 
	C303.809448,335.878052 305.271851,335.725800 307.282013,335.613464 
	C306.903839,333.617188 306.698914,332.003998 306.288086,330.445038 
	C296.581635,293.613281 286.854187,256.787018 277.128113,219.960419 
	C261.538910,160.933609 245.923203,101.913750 230.431305,42.861404 
	C229.663681,39.935410 228.629150,38.758133 225.475800,38.766705 
	C188.817657,38.866329 152.159103,38.857239 115.500885,38.775635 
	C112.908455,38.769867 111.672279,39.444477 110.972221,42.065182 
	C106.505493,58.786541 101.865288,75.461510 97.296242,92.155594 
	C87.242035,128.890945 77.150665,165.616226 67.171196,202.371887 
	C63.599346,215.527451 60.306038,228.758621 56.980320,241.971115 
	C56.980320,241.971115 56.911049,241.904602 56.324482,242.334457 
	C47.835991,273.305969 39.347496,304.277496 30.691635,335.859680 
	C56.368847,335.859680 81.123436,335.896881 105.876625,335.730042 
	C106.917824,335.723022 108.528450,333.987213 108.884117,332.768066 
	C110.881348,325.922211 112.676758,319.012115 114.335999,312.074890 
	C115.444061,307.442169 116.210815,302.727783 117.038643,298.026764 
	C117.038643,298.026764 117.090607,298.105743 117.713539,297.795624 
M162.683105,484.884949 
	C166.194870,483.951294 168.501343,481.441193 167.765396,478.083374 
	C167.267395,475.811157 164.931625,473.571869 162.850845,472.144257 
	C161.421707,471.163727 159.020584,471.445282 157.052094,471.432068 
	C147.954773,471.370850 138.855774,471.473724 129.760025,471.339111 
	C128.117340,471.314819 126.487053,470.453491 125.059250,469.065552 
	C125.068848,449.805756 125.074928,430.545929 125.091110,411.286133 
	C125.094231,407.568451 124.967728,403.924683 120.686539,401.439453 
	C120.108810,401.353516 119.531075,401.267548 118.168610,400.885437 
	C115.875420,401.513855 113.582230,402.142273 110.723091,403.124329 
	C109.890610,406.079559 108.392204,409.022827 108.338959,411.992035 
	C108.085510,426.125183 108.219826,440.265350 108.227219,454.403046 
	C108.230965,461.554840 108.111214,468.710938 108.318916,475.857178 
	C108.502037,482.157837 111.110458,484.661438 117.943901,485.020142 
	C132.615753,484.948517 147.287613,484.876862 162.683105,484.884949 
M930.205566,483.995422 
	C933.469177,481.953064 934.190979,478.559570 932.530090,475.787903 
	C931.327393,473.780731 928.235413,472.014587 925.831848,471.790161 
	C919.398315,471.189453 912.882019,471.456818 906.398376,471.416931 
	C901.314270,471.385681 896.229797,471.410645 890.955078,471.410645 
	C890.828552,469.198822 890.671936,467.735870 890.672180,466.272888 
	C890.674744,448.812836 890.731323,431.352692 890.685852,413.892822 
	C890.679443,411.420227 890.400330,408.908813 889.903137,406.486053 
	C889.129700,402.717743 886.488342,400.952057 882.758423,400.720490 
	C876.823792,400.351990 873.749634,403.605164 873.680237,411.076508 
	C873.528870,427.371613 873.606140,443.669037 873.626160,459.965485 
	C873.633057,465.616333 873.563782,471.277039 873.870605,476.914673 
	C874.108032,481.279053 875.946289,484.633301 881.950256,485.015778 
	C896.068298,485.028992 910.186401,485.075348 924.304138,485.012909 
	C926.041626,485.005219 927.776550,484.416443 930.205566,483.995422 
M927.300964,402.165558 
	C925.540955,403.908020 922.783691,405.377411 922.217041,407.446686 
	C920.793884,412.644318 923.714600,415.703033 929.691162,415.871552 
	C935.929382,416.047394 942.176331,415.910767 948.834595,415.910767 
	C948.834595,420.819580 948.824097,424.951202 948.836609,429.082764 
	C948.886292,445.553558 948.856567,462.025330 949.049561,478.494507 
	C949.107727,483.459442 952.129883,486.365997 956.642395,486.627777 
	C961.155884,486.889679 964.394104,484.272308 965.243164,479.452728 
	C965.586609,477.502899 965.660339,475.485748 965.664001,473.498901 
	C965.695801,456.194519 965.683777,438.890015 965.684692,421.585571 
	C965.684753,419.831696 965.684570,418.077850 965.684570,415.912567 
	C972.341064,415.912567 978.301025,415.898285 984.260925,415.917358 
	C988.582153,415.931183 991.984924,414.304535 992.625732,409.784546 
	C993.190857,405.797913 990.905029,403.225922 986.044250,402.038055 
	C966.705322,402.091370 947.366455,402.144684 927.300964,402.165558 
M786.932800,463.781158 
	C789.894775,474.469971 795.342285,483.170502 807.200989,484.862091 
	C815.174377,485.999481 823.469421,486.666992 831.421326,485.772980 
	C845.003601,484.245941 854.331055,473.963043 854.968872,460.233521 
	C855.732910,443.785217 855.613098,427.295074 855.804382,410.822235 
	C855.821472,409.354340 855.373352,407.866272 855.035950,406.412018 
	C854.216370,402.879944 851.862610,401.113953 848.335693,400.765686 
	C842.474060,400.186890 838.937500,403.536469 838.875427,410.192322 
	C838.735840,425.178345 838.885437,440.167450 838.697021,455.152527 
	C838.572937,465.028870 834.622986,471.132874 826.875793,472.517883 
	C812.207031,475.140289 803.279175,470.622528 802.679810,455.152435 
	C802.538025,451.493713 802.461853,447.830933 802.436401,444.169464 
	C802.354126,432.348267 802.331726,420.526672 802.237305,408.705597 
	C802.207825,405.012115 800.597046,402.084625 796.928284,401.152802 
	C793.523682,400.288086 789.931702,400.039337 787.108948,404.309875 
	C786.690979,406.043732 785.916809,407.776306 785.910583,409.511658 
	C785.852234,425.752380 785.897400,441.993713 786.004639,458.234283 
	C786.015137,459.824341 786.641235,461.410339 786.932800,463.781158 
M688.633179,405.367126 
	C686.793640,401.066986 683.310791,400.013977 679.176392,401.016846 
	C674.797852,402.078949 673.899048,405.684387 673.883362,409.566345 
	C673.833862,421.890900 673.854248,434.215790 673.848633,446.540527 
	C673.846924,450.266785 673.848389,453.993073 673.848389,457.719330 
	C672.023987,456.808746 671.138977,455.711121 670.365723,454.539703 
	C660.282227,439.264801 650.209778,423.982605 640.145203,408.695251 
	C635.250183,401.260223 631.876343,399.419678 626.174927,401.126526 
	C621.445312,402.542419 619.441467,406.517303 619.425476,414.742462 
	C619.386658,434.728180 619.361938,454.713959 619.388794,474.699646 
	C619.391479,476.681427 619.626038,478.697113 620.036804,480.636963 
	C620.875000,484.595337 623.510437,486.652710 627.501099,486.627472 
	C631.747253,486.600616 634.319458,484.248901 635.043945,480.112122 
	C635.385742,478.160309 635.363464,476.130463 635.365967,474.135803 
	C635.383118,460.478760 635.356506,446.821655 635.368774,433.164581 
	C635.369629,432.163422 635.565247,431.162476 635.791626,429.006805 
	C644.453613,442.232513 652.416809,454.465698 660.463623,466.643738 
	C664.037964,472.053070 667.404053,477.665436 671.539795,482.622437 
	C677.148071,489.344574 685.898071,487.764343 689.034058,479.053253 
	C689.125000,456.690613 689.231445,434.327972 689.280029,411.965240 
	C689.284302,409.997650 688.910706,408.029236 688.633179,405.367126 
M1192.969238,70.038673 
	C1181.052612,57.840389 1167.317017,48.319031 1151.317017,42.311295 
	C1126.913574,33.148293 1101.725708,31.585539 1076.053467,34.875423 
	C1029.891235,40.791046 997.315002,65.027664 978.265930,107.403999 
	C968.869446,128.307312 964.784241,150.481262 963.432312,173.216537 
	C961.740540,201.666412 963.066589,229.858536 972.854309,256.962646 
	C987.521851,297.579987 1014.069153,326.253967 1056.952271,337.074127 
	C1084.319824,343.979462 1111.817627,342.752716 1138.766235,334.271027 
	C1167.685425,325.169159 1189.300293,307.307587 1202.119507,279.487915 
	C1203.123291,277.309631 1203.668945,274.717346 1203.677979,272.314636 
	C1203.780273,245.150955 1203.740967,217.986725 1203.720337,190.822662 
	C1203.718994,189.047668 1203.560181,187.272812 1203.464722,185.291687 
	C1177.358276,185.291687 1151.759766,185.291687 1125.699951,185.291687 
	C1125.597290,187.276169 1125.426025,189.062119 1125.424683,190.848221 
	C1125.407471,214.012650 1125.081665,237.184753 1125.614014,260.336975 
	C1125.777832,267.461334 1122.616577,271.147156 1117.122314,273.945312 
	C1114.919189,275.067291 1112.518066,275.895752 1110.119751,276.524323 
	C1085.217529,283.050964 1060.300537,271.286224 1049.245117,246.563309 
	C1035.614014,216.080460 1034.786865,184.515625 1045.552124,153.086975 
	C1052.168823,133.769592 1065.864136,120.391472 1085.579590,114.158722 
	C1105.200073,107.955986 1124.971924,108.462883 1144.534302,114.734039 
	C1162.983887,120.648438 1176.708252,133.113007 1189.062866,147.399673 
	C1190.361694,148.901642 1191.786499,150.294708 1193.888428,152.515549 
	C1193.888428,125.136230 1193.893066,99.146149 1193.866455,73.156105 
	C1193.865601,72.351471 1193.539673,71.547173 1192.969238,70.038673 
M410.500000,38.930439 
	C385.731720,38.930439 360.963440,38.930439 335.971527,38.930439 
	C335.816986,40.863682 335.623810,42.153362 335.623627,43.443081 
	C335.609100,139.248947 335.636139,235.054840 335.519623,330.860565 
	C335.514618,334.963776 336.861847,335.853577 340.664337,335.828033 
	C362.823639,335.679047 384.984467,335.765625 407.144775,335.750763 
	C408.601624,335.749786 410.058350,335.567230 412.042480,335.433594 
	C412.042480,305.579346 412.042480,276.015686 412.042480,245.775208 
	C420.517273,245.775208 428.458069,245.809280 436.398499,245.768570 
	C457.112732,245.662369 477.598785,243.838287 497.633209,238.124619 
	C525.686768,230.123962 545.728882,213.259460 554.597229,185.092285 
	C563.887085,155.586380 565.292297,125.418991 557.154541,95.444542 
	C550.000122,69.091957 532.808350,51.128117 506.493317,43.667412 
	C494.819275,40.357651 482.212708,39.627048 469.975922,39.174931 
	C450.507507,38.455616 430.994263,38.949596 410.500000,38.930439 
M1093.723877,408.412750 
	C1093.723877,424.789856 1093.723877,441.166992 1093.723877,457.544098 
	C1093.294556,457.637421 1092.865234,457.730743 1092.435913,457.824066 
	C1091.709717,456.804047 1090.950684,455.805756 1090.262451,454.760742 
	C1079.641846,438.635010 1069.135132,422.432434 1058.304443,406.449188 
	C1056.687378,404.062744 1053.799927,401.724030 1051.083862,401.056305 
	C1044.406250,399.414581 1039.333374,403.753784 1039.236816,411.483521 
	C1038.962280,433.475830 1039.135132,455.473877 1039.187500,477.469543 
	C1039.190674,478.774139 1039.251831,480.494659 1040.031494,481.299194 
	C1041.964722,483.294098 1044.105225,485.835266 1046.569702,486.409424 
	C1051.374756,487.528809 1054.892944,483.687836 1054.944702,477.826355 
	C1055.075439,462.996735 1055.022583,448.165497 1055.061768,433.334961 
	C1055.064819,432.138611 1055.211304,430.942657 1055.362183,428.685822 
	C1065.432739,444.115173 1074.849854,458.608398 1084.348145,473.048248 
	C1086.631836,476.520111 1088.948242,480.021912 1091.675781,483.136810 
	C1094.822632,486.730774 1099.125244,487.539093 1103.584717,486.067017 
	C1107.635498,484.729828 1108.966553,481.183228 1108.983276,477.344452 
	C1109.082275,454.515472 1109.108521,431.685608 1108.995483,408.856842 
	C1108.974976,404.714081 1107.188843,401.394714 1102.436157,400.833862 
	C1097.443848,400.244751 1095.306885,401.938080 1093.723877,408.412750 
M604.841919,446.277344 
	C603.848206,439.082275 603.969910,431.504547 601.656555,424.762268 
	C593.993103,402.426178 570.726990,396.933472 549.491333,402.668762 
	C537.318665,405.956390 529.682373,414.394501 525.888123,426.254333 
	C523.174683,434.735962 522.558472,443.331177 523.844238,452.295685 
	C528.218750,482.795563 563.747925,497.829651 588.919800,479.587311 
	C599.925171,471.611603 603.881592,460.144531 604.841919,446.277344 
M266.936859,439.605713 
	C271.667053,441.953979 276.236633,444.744263 281.168884,446.536499 
	C287.079651,448.684235 293.382477,449.731659 299.362457,451.716644 
	C305.073242,453.612274 308.125031,457.572571 307.959045,462.102722 
	C307.756073,467.643158 304.403809,471.258118 299.532196,472.729309 
	C288.678833,476.006927 278.729279,474.653625 274.237823,463.027405 
	C273.700226,461.635864 273.014740,460.294006 272.310516,458.975769 
	C270.259613,455.136597 266.968811,453.975555 263.043854,455.396332 
	C259.217285,456.781494 258.065125,459.961304 258.524750,463.848511 
	C259.246643,469.953583 262.294495,474.789917 266.763489,478.797638 
	C278.483246,489.307800 304.046967,489.247284 316.152557,479.126801 
	C327.222534,469.872070 329.546204,446.784210 310.484955,439.333221 
	C306.466827,437.762604 302.357178,436.407227 298.237427,435.119965 
	C292.696594,433.388611 286.987305,432.128906 281.577698,430.069580 
	C278.115509,428.751587 275.305695,426.221466 275.715424,421.754181 
	C276.106445,417.490295 278.958466,415.210419 282.516998,413.998169 
	C291.630463,410.893555 300.960327,411.782074 306.243896,423.047974 
	C308.802032,428.502502 312.496796,429.942841 316.534515,428.064148 
	C320.537628,426.201538 322.037994,421.456665 320.222900,416.445282 
	C317.984039,410.263672 313.575897,405.999268 307.642639,403.695618 
	C295.818085,399.104614 283.795135,399.103577 272.282776,404.552856 
	C258.326935,411.158783 255.662415,427.934326 266.936859,439.605713 
M749.975342,470.546936 
	C737.890747,478.296173 726.385803,474.999817 720.454834,462.089050 
	C720.177002,461.484406 719.916626,460.870605 719.612427,460.279480 
	C717.156738,455.508331 713.611633,453.755493 709.565979,455.301392 
	C705.830383,456.728851 704.056458,460.968414 705.351685,465.836670 
	C707.337158,473.299072 711.710327,479.152008 718.634827,482.455231 
	C731.185669,488.442413 744.167542,488.507812 756.761353,482.800293 
	C769.090515,477.212769 774.271545,464.087524 769.695190,451.473022 
	C766.726746,443.290710 759.650085,439.790924 752.096313,437.311096 
	C744.687195,434.878754 737.031677,433.195160 729.628784,430.746307 
	C725.588501,429.409821 721.878174,426.923676 722.270081,421.856689 
	C722.662354,416.785400 726.407776,414.352295 730.854309,413.382416 
	C742.391479,410.865906 748.598755,413.676514 753.202393,423.894623 
	C755.004333,427.894135 758.180725,429.696106 762.562683,428.254456 
	C766.393372,426.994202 768.950867,422.141632 767.069519,417.991943 
	C765.217957,413.907837 762.697083,409.594025 759.288208,406.847870 
	C748.511230,398.166229 726.119385,398.479492 715.028564,406.787537 
	C703.593018,415.353882 703.354431,432.263275 714.928528,440.578583 
	C718.750305,443.324280 723.425659,445.075439 727.937012,446.620483 
	C734.047791,448.713287 740.534546,449.746185 746.574341,451.999512 
	C755.426270,455.301971 756.994141,463.234283 749.975342,470.546936 
M501.260376,408.190216 
	C485.633667,397.339050 464.332275,398.005920 450.888916,410.211182 
	C438.813385,421.174591 436.399048,435.547424 438.000549,450.914215 
	C441.035919,480.039368 469.604156,495.820587 495.566742,482.686157 
	C504.352722,478.241333 510.072266,471.082977 511.788666,461.196625 
	C512.514648,457.014771 511.251801,453.400208 506.798706,452.076233 
	C502.483887,450.793365 499.340424,452.534241 497.641876,456.749695 
	C497.021301,458.289825 496.466278,459.861542 495.756134,461.359467 
	C491.831146,469.638550 485.201813,473.408600 476.112518,473.163727 
	C467.168671,472.922791 460.589447,468.747131 457.571228,460.476257 
	C453.452728,449.190308 453.395203,437.554047 458.212372,426.411041 
	C461.300995,419.266449 466.987915,414.804382 475.069366,414.056091 
	C483.717590,413.255310 490.294617,416.619141 494.836792,423.987396 
	C495.708496,425.401459 496.461670,426.888062 497.293365,428.327423 
	C499.567413,432.263062 502.799713,434.140259 507.311279,432.520111 
	C511.112701,431.154999 513.250488,426.438477 511.034760,421.965607 
	C508.661621,417.175110 504.951660,413.046844 501.260376,408.190216 
M47.995922,456.659485 
	C47.661312,454.085968 48.258938,452.646912 51.389500,452.812195 
	C56.038792,453.057678 60.719364,453.019196 65.373566,452.810425 
	C86.962692,451.842041 96.400879,441.619904 94.090248,421.853149 
	C92.964355,412.221466 85.847252,404.036041 76.179947,403.163788 
	C64.616295,402.120514 52.945068,402.125854 41.316826,401.993317 
	C33.782883,401.907410 30.965944,405.069092 30.931164,412.810150 
	C30.891506,421.636688 30.919598,430.463531 30.920628,439.290222 
	C30.922087,451.780823 30.828485,464.272461 30.966684,476.761566 
	C31.043573,483.710083 35.478821,487.828552 41.177906,486.463806 
	C46.282101,485.241547 47.798405,481.228210 47.927544,476.612396 
	C48.104473,470.288605 47.986370,463.956573 47.995922,456.659485 
M1003.515625,478.696625 
	C1004.755920,484.455811 1007.628418,486.997559 1012.466248,486.616516 
	C1017.169128,486.246155 1020.081360,482.991913 1020.108643,477.272675 
	C1020.214966,454.994659 1020.206177,432.715790 1020.133972,410.437561 
	C1020.113098,404.004639 1017.271545,400.853882 1011.926575,400.746277 
	C1006.332397,400.633667 1003.317139,403.699463 1003.288635,410.511444 
	C1003.194641,432.953766 1003.326416,455.397034 1003.515625,478.696625 
z"/>
<path fill="#DB2D1F" opacity="1.000000" stroke="none" 
	d="
M752.970337,192.000092 
	C752.982483,192.451736 752.994690,192.903397 753.064331,194.065338 
	C753.722717,197.189545 754.323608,199.603424 754.924561,202.017303 
	C754.968140,202.771011 755.011719,203.524689 755.093506,205.048676 
	C756.434692,213.207596 757.737732,220.596207 759.040771,227.984818 
	C759.028687,228.438843 759.016663,228.892868 759.010315,230.030365 
	C759.332214,231.821182 759.648376,232.928528 759.964600,234.035873 
	C759.975708,234.479996 759.986877,234.924133 760.000549,236.086411 
	C760.298706,238.604614 760.594360,240.404663 760.890015,242.204712 
	C760.946960,243.852112 761.003967,245.499512 761.075073,247.942657 
	C761.390076,250.415222 761.690857,252.092041 761.991577,253.768845 
	C762.560303,253.760284 763.129028,253.751709 763.697693,253.743134 
	C764.713135,243.493362 765.728577,233.243607 766.744019,222.993835 
	C766.840454,222.552109 766.936890,222.110397 767.188110,220.988342 
	C767.836182,216.530151 768.329529,212.752289 768.822876,208.974426 
	C768.888367,208.533157 768.953796,208.091873 769.166138,207.000412 
	C769.451965,204.884857 769.590942,203.419495 769.729919,201.954117 
	C769.819641,201.518417 769.909302,201.082718 770.165894,200.059326 
	C770.455078,198.644562 770.577271,197.817474 770.699463,196.990387 
	C770.820679,196.246567 770.941895,195.502762 771.283691,194.091827 
	C772.278259,188.608261 773.052185,183.791840 773.826111,178.975418 
	C773.826111,178.975418 773.986755,178.502808 774.282837,178.005157 
	C775.312683,173.338287 776.046326,169.169083 776.780029,164.999878 
	C777.162231,163.569885 777.544434,162.139862 778.109009,160.052277 
	C778.432434,158.245560 778.573425,157.096405 778.714478,155.947266 
	C778.808899,155.514877 778.903381,155.082504 779.258301,154.056442 
	C780.944885,146.308929 782.371094,139.155121 783.797363,132.001312 
	C783.889771,131.560776 783.982239,131.120270 784.317993,130.075333 
	C785.017334,126.650024 785.473328,123.829147 785.929321,121.008270 
	C786.053345,120.679909 786.177368,120.351555 786.537354,119.457214 
	C787.768188,113.593880 788.763062,108.296539 789.757935,102.999207 
	C789.890869,102.620712 790.023804,102.242226 790.407837,101.278473 
	C791.355530,97.126015 792.052185,93.558830 792.748840,89.991646 
	C792.843018,89.550995 792.937256,89.110352 793.205322,88.034569 
	C793.806641,85.247040 794.234192,83.094643 794.661682,80.942245 
	C794.753174,80.508049 794.844727,80.073853 795.115112,78.993393 
	C796.084045,74.229744 796.874146,70.112358 797.664307,65.994972 
	C797.789062,65.554871 797.913879,65.114761 798.219360,64.016281 
	C800.212646,55.215267 802.025269,47.072628 803.837891,38.929996 
	C803.837891,38.930000 803.934326,38.983990 804.420166,39.013500 
	C843.248596,39.069145 881.591187,39.095280 919.933838,39.121414 
	C919.986084,43.285450 920.083435,47.449482 920.084045,51.613529 
	C920.097595,144.268585 920.100464,236.923645 920.105225,329.578705 
	C920.105347,331.394348 920.105225,333.210022 920.105225,335.399261 
	C897.005310,335.399261 874.267761,335.399261 850.987305,335.399261 
	C850.861572,333.816193 850.621399,332.232758 850.626770,330.650146 
	C850.869690,259.496796 851.128784,188.343460 851.408936,117.190231 
	C851.426636,112.693817 851.743896,108.196075 851.665039,103.703468 
	C851.643860,102.496040 850.676270,101.305214 850.143066,100.106750 
	C849.444824,101.404663 848.287231,102.646362 848.120361,104.009338 
	C846.705261,115.568222 846.092834,127.259872 844.057007,138.701294 
	C839.341125,165.204956 834.511414,191.711609 828.722595,217.995667 
	C820.353516,255.995377 811.041199,293.786835 802.316895,331.709839 
	C801.609436,334.784790 800.602295,335.823364 797.492126,335.809052 
	C775.162109,335.706207 752.830994,335.705139 730.501099,335.824066 
	C727.316223,335.841003 726.417725,334.587158 725.677795,331.649078 
	C712.755493,280.339478 699.249512,229.172424 686.829590,177.742752 
	C681.137878,154.173965 677.520874,130.104416 672.944946,106.265404 
	C672.551453,104.215408 672.022522,102.191429 671.556458,100.155365 
	C670.989868,100.218597 670.423218,100.281822 669.856628,100.345055 
	C670.622375,139.384171 671.687683,178.420364 672.069702,217.463242 
	C672.452698,256.607880 672.153870,295.759216 672.153870,335.341187 
	C649.126038,335.341187 626.413025,335.341187 603.256226,335.341187 
	C603.256226,236.910645 603.256226,138.368042 603.256226,39.260071 
	C604.465637,39.160664 605.880615,38.943542 607.295654,38.942802 
	C642.791138,38.924179 678.286743,38.953594 713.782104,38.882919 
	C716.783142,38.876945 718.397034,39.260426 719.191101,42.838753 
	C727.659180,80.999588 736.380005,119.104324 745.112305,158.002411 
	C746.781189,165.205872 748.369202,171.631393 749.957153,178.056915 
	C749.964905,178.496094 749.972717,178.935257 750.018250,179.996323 
	C750.325317,181.157715 750.594604,181.697205 750.863892,182.236679 
	C750.906372,182.637772 750.948792,183.038864 751.043457,184.104645 
	C751.720520,187.179581 752.345459,189.589828 752.970337,192.000092 
z"/>
<path fill="#DB2D1E" opacity="1.000000" stroke="none" 
	d="
M124.982918,273.825073 
	C124.982918,273.825073 124.573502,274.001526 123.976921,274.065613 
	C121.283760,282.121735 119.187180,290.113739 117.090607,298.105743 
	C117.090607,298.105743 117.038643,298.026764 116.773392,298.238525 
	C116.018143,299.833984 115.436501,301.192810 115.053062,302.605408 
	C112.623856,311.554657 110.117790,320.486023 107.894806,329.486938 
	C106.931313,333.388184 104.664612,334.156708 101.006409,334.131378 
	C80.022163,333.986176 59.036400,334.064545 38.051163,334.049469 
	C36.586147,334.048431 35.121235,333.905579 33.597652,333.825592 
	C33.555676,333.042572 33.403278,332.531006 33.522758,332.093781 
	C39.360874,310.730103 45.338207,289.403534 51.024525,267.999695 
	C53.312412,259.387848 54.967796,250.607986 56.911049,241.904602 
	C56.911049,241.904602 56.980320,241.971115 57.227551,241.762848 
	C61.642838,227.624023 66.019981,213.751678 69.918350,199.746063 
	C73.592262,186.546799 76.580963,173.157623 80.201157,159.942398 
	C84.308708,144.948105 88.921738,130.092636 93.065552,115.107834 
	C99.422409,92.120277 105.654060,69.096909 111.720253,46.031246 
	C112.829025,41.815331 114.950493,40.835712 119.058548,40.859375 
	C149.041672,41.032097 179.026260,40.958054 209.010361,40.939426 
	C210.831833,40.938293 212.654144,40.644428 214.474350,40.662189 
	C218.072220,40.697308 221.712265,40.543007 225.256042,41.034889 
	C230.723846,41.793839 228.687927,46.962486 230.111343,50.115757 
	C230.711884,51.446133 231.574585,52.698547 231.945786,54.086006 
	C237.289169,74.058876 242.662872,94.024483 247.835434,114.041931 
	C252.222961,131.021393 256.213959,148.103699 260.645477,165.071289 
	C266.292999,186.694778 272.246185,208.238251 277.997009,229.835007 
	C285.574219,258.290710 293.103790,286.759155 300.603912,315.235291 
	C302.185944,321.241821 303.552002,327.305267 305.089417,333.638458 
	C303.431122,333.830750 302.466187,334.039490 301.501038,334.040375 
	C278.346649,334.061035 255.191528,333.969421 232.038528,334.151398 
	C228.225601,334.181366 227.020752,332.003418 226.248154,329.247681 
	C225.176880,325.426697 224.597275,321.470947 223.647690,317.612183 
	C220.683197,305.565582 217.748108,293.509613 214.551697,281.523926 
	C213.851288,278.897522 212.116653,276.546967 210.858292,274.069366 
	C182.885193,274.010040 154.912079,273.950714 126.375458,273.680695 
	C125.535599,273.588348 125.259262,273.706726 124.982918,273.825073 
M172.849731,106.531387 
	C171.812790,101.147926 170.775864,95.764465 169.931168,91.379051 
	C160.787949,128.826019 151.480072,166.947388 142.141403,205.194855 
	C160.252258,205.194855 177.947418,205.194855 195.863586,205.194855 
	C188.156952,172.299484 180.552979,139.842361 172.849731,106.531387 
z"/>
<path fill="#DB2E1F" opacity="1.000000" stroke="none" 
	d="
M1193.167236,70.390701 
	C1193.539673,71.547173 1193.865601,72.351471 1193.866455,73.156105 
	C1193.893066,99.146149 1193.888428,125.136230 1193.888428,152.515549 
	C1191.786499,150.294708 1190.361694,148.901642 1189.062866,147.399673 
	C1176.708252,133.113007 1162.983887,120.648438 1144.534302,114.734039 
	C1124.971924,108.462883 1105.200073,107.955986 1085.579590,114.158722 
	C1065.864136,120.391472 1052.168823,133.769592 1045.552124,153.086975 
	C1034.786865,184.515625 1035.614014,216.080460 1049.245117,246.563309 
	C1060.300537,271.286224 1085.217529,283.050964 1110.119751,276.524323 
	C1112.518066,275.895752 1114.919189,275.067291 1117.122314,273.945312 
	C1122.616577,271.147156 1125.777832,267.461334 1125.614014,260.336975 
	C1125.081665,237.184753 1125.407471,214.012650 1125.424683,190.848221 
	C1125.426025,189.062119 1125.597290,187.276169 1125.699951,185.291687 
	C1151.759766,185.291687 1177.358276,185.291687 1203.464722,185.291687 
	C1203.560181,187.272812 1203.718994,189.047668 1203.720337,190.822662 
	C1203.740967,217.986725 1203.780273,245.150955 1203.677979,272.314636 
	C1203.668945,274.717346 1203.123291,277.309631 1202.119507,279.487915 
	C1189.300293,307.307587 1167.685425,325.169159 1138.766235,334.271027 
	C1111.817627,342.752716 1084.319824,343.979462 1056.952271,337.074127 
	C1014.069153,326.253967 987.521851,297.579987 972.854309,256.962646 
	C963.066589,229.858536 961.740540,201.666412 963.432312,173.216537 
	C964.784241,150.481262 968.869446,128.307312 978.265930,107.403999 
	C997.315002,65.027664 1029.891235,40.791046 1076.053467,34.875423 
	C1101.725708,31.585539 1126.913574,33.148293 1151.317017,42.311295 
	C1167.317017,48.319031 1181.052612,57.840389 1193.167236,70.390701 
z"/>
<path fill="#DB2D1E" opacity="1.000000" stroke="none" 
	d="
M411.000000,38.930428 
	C430.994263,38.949596 450.507507,38.455616 469.975922,39.174931 
	C482.212708,39.627048 494.819275,40.357651 506.493317,43.667412 
	C532.808350,51.128117 550.000122,69.091957 557.154541,95.444542 
	C565.292297,125.418991 563.887085,155.586380 554.597229,185.092285 
	C545.728882,213.259460 525.686768,230.123962 497.633209,238.124619 
	C477.598785,243.838287 457.112732,245.662369 436.398499,245.768570 
	C428.458069,245.809280 420.517273,245.775208 412.042480,245.775208 
	C412.042480,276.015686 412.042480,305.579346 412.042480,335.433594 
	C410.058350,335.567230 408.601624,335.749786 407.144775,335.750763 
	C384.984467,335.765625 362.823639,335.679047 340.664337,335.828033 
	C336.861847,335.853577 335.514618,334.963776 335.519623,330.860565 
	C335.636139,235.054840 335.609100,139.248947 335.623627,43.443081 
	C335.623810,42.153362 335.816986,40.863682 335.971527,38.930439 
	C360.963440,38.930439 385.731720,38.930439 411.000000,38.930428 
M473.814758,116.601357 
	C466.766479,114.855782 459.789551,112.089363 452.654114,111.590561 
	C440.218475,110.721237 427.685150,111.237999 415.192688,111.214577 
	C414.252899,111.212814 413.312500,111.536118 412.368805,111.708969 
	C412.368805,134.701797 412.368805,157.437897 412.368805,180.379852 
	C423.467682,180.379852 434.277283,180.820801 445.029205,180.223450 
	C452.091766,179.831024 459.307037,178.686005 466.036530,176.558060 
	C478.520203,172.610550 486.303589,163.808945 487.723907,150.557159 
	C489.152802,137.225418 487.394226,124.783554 473.814758,116.601357 
z"/>
<path fill="#3E2F97" opacity="1.000000" stroke="none" 
	d="
M1093.793457,407.996399 
	C1095.306885,401.938080 1097.443848,400.244751 1102.436157,400.833862 
	C1107.188843,401.394714 1108.974976,404.714081 1108.995483,408.856842 
	C1109.108521,431.685608 1109.082275,454.515472 1108.983276,477.344452 
	C1108.966553,481.183228 1107.635498,484.729828 1103.584717,486.067017 
	C1099.125244,487.539093 1094.822632,486.730774 1091.675781,483.136810 
	C1088.948242,480.021912 1086.631836,476.520111 1084.348145,473.048248 
	C1074.849854,458.608398 1065.432739,444.115173 1055.362183,428.685822 
	C1055.211304,430.942657 1055.064819,432.138611 1055.061768,433.334961 
	C1055.022583,448.165497 1055.075439,462.996735 1054.944702,477.826355 
	C1054.892944,483.687836 1051.374756,487.528809 1046.569702,486.409424 
	C1044.105225,485.835266 1041.964722,483.294098 1040.031494,481.299194 
	C1039.251831,480.494659 1039.190674,478.774139 1039.187500,477.469543 
	C1039.135132,455.473877 1038.962280,433.475830 1039.236816,411.483521 
	C1039.333374,403.753784 1044.406250,399.414581 1051.083862,401.056305 
	C1053.799927,401.724030 1056.687378,404.062744 1058.304443,406.449188 
	C1069.135132,422.432434 1079.641846,438.635010 1090.262451,454.760742 
	C1090.950684,455.805756 1091.709717,456.804047 1092.435913,457.824066 
	C1092.865234,457.730743 1093.294556,457.637421 1093.723877,457.544098 
	C1093.723877,441.166992 1093.723877,424.789856 1093.793457,407.996399 
z"/>
<path fill="#3F2F98" opacity="1.000000" stroke="none" 
	d="
M688.749023,479.945862 
	C685.898071,487.764343 677.148071,489.344574 671.539795,482.622437 
	C667.404053,477.665436 664.037964,472.053070 660.463623,466.643738 
	C652.416809,454.465698 644.453613,442.232513 635.791626,429.006805 
	C635.565247,431.162476 635.369629,432.163422 635.368774,433.164581 
	C635.356506,446.821655 635.383118,460.478760 635.365967,474.135803 
	C635.363464,476.130463 635.385742,478.160309 635.043945,480.112122 
	C634.319458,484.248901 631.747253,486.600616 627.501099,486.627472 
	C623.510437,486.652710 620.875000,484.595337 620.036804,480.636963 
	C619.626038,478.697113 619.391479,476.681427 619.388794,474.699646 
	C619.361938,454.713959 619.386658,434.728180 619.425476,414.742462 
	C619.441467,406.517303 621.445312,402.542419 626.174927,401.126526 
	C631.876343,399.419678 635.250183,401.260223 640.145203,408.695251 
	C650.209778,423.982605 660.282227,439.264801 670.365723,454.539703 
	C671.138977,455.711121 672.023987,456.808746 673.848389,457.719330 
	C673.848389,453.993073 673.846924,450.266785 673.848633,446.540527 
	C673.854248,434.215790 673.833862,421.890900 673.883362,409.566345 
	C673.899048,405.684387 674.797852,402.078949 679.176392,401.016846 
	C683.310791,400.013977 686.793640,401.066986 688.439819,406.048431 
	C688.171326,430.532928 688.090820,454.336090 688.051758,478.139343 
	C688.050781,478.741119 688.506409,479.343658 688.749023,479.945862 
z"/>
<path fill="#3F3097" opacity="1.000000" stroke="none" 
	d="
M604.828979,446.743073 
	C603.881592,460.144531 599.925171,471.611603 588.919800,479.587311 
	C563.747925,497.829651 528.218750,482.795563 523.844238,452.295685 
	C522.558472,443.331177 523.174683,434.735962 525.888123,426.254333 
	C529.682373,414.394501 537.318665,405.956390 549.491333,402.668762 
	C570.726990,396.933472 593.993103,402.426178 601.656555,424.762268 
	C603.969910,431.504547 603.848206,439.082275 604.828979,446.743073 
M576.683350,417.643494 
	C563.714050,410.127838 549.037537,414.175598 543.543335,427.128113 
	C539.069031,437.676208 539.010193,448.620361 543.269165,459.198273 
	C549.485779,474.638519 569.922241,478.154480 580.640808,466.066040 
	C590.798645,454.610046 590.513733,427.173615 576.683350,417.643494 
z"/>
<path fill="#403197" opacity="1.000000" stroke="none" 
	d="
M266.674683,439.356384 
	C255.662415,427.934326 258.326935,411.158783 272.282776,404.552856 
	C283.795135,399.103577 295.818085,399.104614 307.642639,403.695618 
	C313.575897,405.999268 317.984039,410.263672 320.222900,416.445282 
	C322.037994,421.456665 320.537628,426.201538 316.534515,428.064148 
	C312.496796,429.942841 308.802032,428.502502 306.243896,423.047974 
	C300.960327,411.782074 291.630463,410.893555 282.516998,413.998169 
	C278.958466,415.210419 276.106445,417.490295 275.715424,421.754181 
	C275.305695,426.221466 278.115509,428.751587 281.577698,430.069580 
	C286.987305,432.128906 292.696594,433.388611 298.237427,435.119965 
	C302.357178,436.407227 306.466827,437.762604 310.484955,439.333221 
	C329.546204,446.784210 327.222534,469.872070 316.152557,479.126801 
	C304.046967,489.247284 278.483246,489.307800 266.763489,478.797638 
	C262.294495,474.789917 259.246643,469.953583 258.524750,463.848511 
	C258.065125,459.961304 259.217285,456.781494 263.043854,455.396332 
	C266.968811,453.975555 270.259613,455.136597 272.310516,458.975769 
	C273.014740,460.294006 273.700226,461.635864 274.237823,463.027405 
	C278.729279,474.653625 288.678833,476.006927 299.532196,472.729309 
	C304.403809,471.258118 307.756073,467.643158 307.959045,462.102722 
	C308.125031,457.572571 305.073242,453.612274 299.362457,451.716644 
	C293.382477,449.731659 287.079651,448.684235 281.168884,446.536499 
	C276.236633,444.744263 271.667053,441.953979 266.674683,439.356384 
z"/>
<path fill="#403196" opacity="1.000000" stroke="none" 
	d="
M750.288452,470.322052 
	C756.994141,463.234283 755.426270,455.301971 746.574341,451.999512 
	C740.534546,449.746185 734.047791,448.713287 727.937012,446.620483 
	C723.425659,445.075439 718.750305,443.324280 714.928528,440.578583 
	C703.354431,432.263275 703.593018,415.353882 715.028564,406.787537 
	C726.119385,398.479492 748.511230,398.166229 759.288208,406.847870 
	C762.697083,409.594025 765.217957,413.907837 767.069519,417.991943 
	C768.950867,422.141632 766.393372,426.994202 762.562683,428.254456 
	C758.180725,429.696106 755.004333,427.894135 753.202393,423.894623 
	C748.598755,413.676514 742.391479,410.865906 730.854309,413.382416 
	C726.407776,414.352295 722.662354,416.785400 722.270081,421.856689 
	C721.878174,426.923676 725.588501,429.409821 729.628784,430.746307 
	C737.031677,433.195160 744.687195,434.878754 752.096313,437.311096 
	C759.650085,439.790924 766.726746,443.290710 769.695190,451.473022 
	C774.271545,464.087524 769.090515,477.212769 756.761353,482.800293 
	C744.167542,488.507812 731.185669,488.442413 718.634827,482.455231 
	C711.710327,479.152008 707.337158,473.299072 705.351685,465.836670 
	C704.056458,460.968414 705.830383,456.728851 709.565979,455.301392 
	C713.611633,453.755493 717.156738,455.508331 719.612427,460.279480 
	C719.916626,460.870605 720.177002,461.484406 720.454834,462.089050 
	C726.385803,474.999817 737.890747,478.296173 750.288452,470.322052 
z"/>
<path fill="#3E2F97" opacity="1.000000" stroke="none" 
	d="
M787.797180,403.927338 
	C789.931702,400.039337 793.523682,400.288086 796.928284,401.152802 
	C800.597046,402.084625 802.207825,405.012115 802.237305,408.705597 
	C802.331726,420.526672 802.354126,432.348267 802.436401,444.169464 
	C802.461853,447.830933 802.538025,451.493713 802.679810,455.152435 
	C803.279175,470.622528 812.207031,475.140289 826.875793,472.517883 
	C834.622986,471.132874 838.572937,465.028870 838.697021,455.152527 
	C838.885437,440.167450 838.735840,425.178345 838.875427,410.192322 
	C838.937500,403.536469 842.474060,400.186890 848.335693,400.765686 
	C851.862610,401.113953 854.216370,402.879944 855.035950,406.412018 
	C855.373352,407.866272 855.821472,409.354340 855.804382,410.822235 
	C855.613098,427.295074 855.732910,443.785217 854.968872,460.233521 
	C854.331055,473.963043 845.003601,484.245941 831.421326,485.772980 
	C823.469421,486.666992 815.174377,485.999481 807.200989,484.862091 
	C795.342285,483.170502 789.894775,474.469971 787.244995,463.134094 
	C787.371338,460.061188 786.963318,457.628754 787.035278,455.210632 
	C787.533325,438.487854 788.137268,421.768188 788.658142,405.046021 
	C788.669495,404.682404 788.097229,404.300629 787.797180,403.927338 
z"/>
<path fill="#3F3097" opacity="1.000000" stroke="none" 
	d="
M501.542786,408.409851 
	C504.951660,413.046844 508.661621,417.175110 511.034760,421.965607 
	C513.250488,426.438477 511.112701,431.154999 507.311279,432.520111 
	C502.799713,434.140259 499.567413,432.263062 497.293365,428.327423 
	C496.461670,426.888062 495.708496,425.401459 494.836792,423.987396 
	C490.294617,416.619141 483.717590,413.255310 475.069366,414.056091 
	C466.987915,414.804382 461.300995,419.266449 458.212372,426.411041 
	C453.395203,437.554047 453.452728,449.190308 457.571228,460.476257 
	C460.589447,468.747131 467.168671,472.922791 476.112518,473.163727 
	C485.201813,473.408600 491.831146,469.638550 495.756134,461.359467 
	C496.466278,459.861542 497.021301,458.289825 497.641876,456.749695 
	C499.340424,452.534241 502.483887,450.793365 506.798706,452.076233 
	C511.251801,453.400208 512.514648,457.014771 511.788666,461.196625 
	C510.072266,471.082977 504.352722,478.241333 495.566742,482.686157 
	C469.604156,495.820587 441.035919,480.039368 438.000549,450.914215 
	C436.399048,435.547424 438.813385,421.174591 450.888916,410.211182 
	C464.332275,398.005920 485.633667,397.339050 501.542786,408.409851 
z"/>
<path fill="#3F2F97" opacity="1.000000" stroke="none" 
	d="
M190.115341,470.299805 
	C190.115341,470.299805 190.182449,470.663055 189.832169,471.041412 
	C188.644424,474.272552 187.806946,477.125305 186.969467,479.978088 
	C185.040176,485.773438 181.863739,487.822601 177.169189,486.300537 
	C172.491791,484.783966 170.393753,479.950470 172.430389,474.360474 
	C175.334091,466.390625 178.529190,458.526215 181.641998,450.633392 
	C186.827957,437.483917 192.008835,424.332184 197.271774,411.213440 
	C199.358719,406.011444 201.743118,401.098206 208.515564,400.726227 
	C215.545837,400.340088 219.370193,402.929962 222.583023,410.903015 
	C229.360153,427.721375 236.082092,444.561951 242.825089,461.394043 
	C244.557892,465.719513 246.485580,469.980011 247.964401,474.390839 
	C249.883255,480.114105 248.196381,484.319885 243.693420,486.089050 
	C239.270752,487.826691 236.008896,486.204987 233.199188,480.223267 
	C232.120346,475.182068 231.207809,470.527649 229.363708,466.277435 
	C228.678589,464.698425 225.841171,463.215576 223.933151,463.147400 
	C214.861618,462.823273 205.770538,462.921082 196.690948,463.099548 
	C195.498245,463.123016 194.331665,464.475708 193.153000,465.212769 
	C193.153000,465.212769 193.068207,465.098053 192.739685,465.117828 
	C191.645874,466.858337 190.880615,468.579071 190.115341,470.299805 
M221.737000,451.638947 
	C217.916626,440.923218 214.096252,430.207489 209.796341,418.146698 
	C205.428909,430.349762 201.566956,441.140411 197.555649,452.348419 
	C205.923416,452.348419 213.636383,452.348419 221.737000,451.638947 
z"/>
<path fill="#3E2E96" opacity="1.000000" stroke="none" 
	d="
M47.995316,457.143768 
	C47.986370,463.956573 48.104473,470.288605 47.927544,476.612396 
	C47.798405,481.228210 46.282101,485.241547 41.177906,486.463806 
	C35.478821,487.828552 31.043573,483.710083 30.966684,476.761566 
	C30.828485,464.272461 30.922087,451.780823 30.920628,439.290222 
	C30.919598,430.463531 30.891506,421.636688 30.931164,412.810150 
	C30.965944,405.069092 33.782883,401.907410 41.316826,401.993317 
	C52.945068,402.125854 64.616295,402.120514 76.179947,403.163788 
	C85.847252,404.036041 92.964355,412.221466 94.090248,421.853149 
	C96.400879,441.619904 86.962692,451.842041 65.373566,452.810425 
	C60.719364,453.019196 56.038792,453.057678 51.389500,452.812195 
	C48.258938,452.646912 47.661312,454.085968 47.995316,457.143768 
M74.165016,418.337524 
	C66.085258,412.732117 57.068481,415.285431 48.236240,414.729736 
	C48.236240,423.425781 48.236240,431.478699 48.236240,439.717377 
	C54.078342,439.717377 59.731693,440.250885 65.247459,439.606628 
	C76.820099,438.254791 80.873695,428.967285 74.165016,418.337524 
z"/>
<path fill="#403097" opacity="1.000000" stroke="none" 
	d="
M1141.669922,450.042206 
	C1141.759766,450.478058 1141.849731,450.913910 1141.658447,451.950134 
	C1141.429443,458.090973 1142.815552,462.977509 1147.977905,466.012329 
	C1147.977905,466.012329 1148.000000,466.000000 1148.000000,466.380798 
	C1149.014771,468.157288 1149.724121,470.100891 1151.091797,470.862671 
	C1162.959839,477.473175 1174.893555,475.407227 1186.632446,470.435791 
	C1187.631958,470.012512 1187.749146,467.505981 1188.276123,465.967285 
	C1188.222778,464.916626 1188.169434,463.866028 1188.532227,462.314392 
	C1188.708862,459.515137 1188.469116,457.216827 1188.229370,454.918549 
	C1188.229370,454.918549 1188.061890,454.768341 1188.009521,454.342407 
	C1182.654419,451.672821 1177.334106,453.088318 1172.017090,453.839600 
	C1171.135864,453.755707 1170.254639,453.671814 1169.139160,452.955872 
	C1165.593750,446.278900 1167.544189,442.976593 1174.455933,442.960754 
	C1180.949707,442.945892 1187.446289,442.840729 1193.936401,442.994263 
	C1199.642944,443.129242 1201.805664,445.206207 1202.002319,450.796722 
	C1202.195435,456.284576 1202.333130,461.807312 1201.910522,467.269501 
	C1201.708862,469.876831 1200.902710,473.337555 1199.080566,474.764282 
	C1190.972168,481.113312 1181.542603,485.097260 1171.183228,484.867035 
	C1162.534546,484.674896 1153.919800,482.955048 1145.290039,481.911774 
	C1136.011353,477.375519 1129.936035,470.109619 1126.864014,459.545410 
	C1126.396362,457.522247 1125.926758,456.239716 1125.457031,454.957214 
	C1125.335693,454.516754 1125.214478,454.076324 1125.364868,453.022705 
	C1125.691772,451.922577 1125.865234,451.415192 1125.784912,450.951691 
	C1123.947021,440.332489 1126.144043,430.445343 1131.231567,421.105194 
	C1133.079956,417.711639 1135.089600,414.405853 1137.025757,411.060059 
	C1137.369019,410.683624 1137.712402,410.307159 1138.702393,409.890564 
	C1144.368774,407.606201 1149.193848,404.298645 1154.448364,403.336456 
	C1165.803345,401.257172 1177.426270,399.651489 1187.901245,407.153625 
	C1190.104004,408.731262 1192.822998,409.588104 1195.304199,410.777069 
	C1195.304199,410.777069 1195.081299,410.842499 1195.102051,411.169128 
	C1196.494385,414.244690 1197.848633,417.002441 1199.242310,419.740143 
	C1200.660522,422.526001 1200.319214,424.607605 1197.465698,426.459106 
	C1193.181396,429.238953 1190.655518,428.867279 1187.345825,424.830658 
	C1185.694336,422.816528 1183.552979,421.204132 1181.633179,419.410034 
	C1181.633179,419.410034 1181.745361,419.441162 1181.669434,419.100677 
	C1181.250244,418.574677 1180.906738,418.389160 1180.563354,418.203644 
	C1180.563354,418.203644 1180.222656,418.101288 1180.061035,417.631653 
	C1179.182373,416.819641 1178.465210,416.477264 1177.748047,416.134888 
	C1177.748047,416.134888 1177.314209,416.053528 1177.163086,415.567627 
	C1175.028320,414.656921 1173.044800,414.232117 1171.061157,413.807281 
	C1168.339722,413.842194 1165.618164,413.877075 1162.345093,413.702209 
	C1161.514526,413.609802 1161.235596,413.727112 1160.956665,413.844452 
	C1160.956665,413.844452 1160.853882,413.975067 1160.445923,413.911743 
	C1156.921387,413.098969 1154.299072,413.497314 1152.967285,416.892975 
	C1152.546753,417.247070 1152.126343,417.601166 1151.067383,418.019379 
	C1143.067871,422.648010 1141.451782,430.400665 1140.246826,437.938141 
	C1139.629761,441.798309 1141.127808,445.996674 1141.669922,450.042206 
z"/>
<path fill="#3F3098" opacity="1.000000" stroke="none" 
	d="
M986.946838,402.283081 
	C990.905029,403.225922 993.190857,405.797913 992.625732,409.784546 
	C991.984924,414.304535 988.582153,415.931183 984.260925,415.917358 
	C978.301025,415.898285 972.341064,415.912567 965.684570,415.912567 
	C965.684570,418.077850 965.684753,419.831696 965.684692,421.585571 
	C965.683777,438.890015 965.695801,456.194519 965.664001,473.498901 
	C965.660339,475.485748 965.586609,477.502899 965.243164,479.452728 
	C964.394104,484.272308 961.155884,486.889679 956.642395,486.627777 
	C952.129883,486.365997 949.107727,483.459442 949.049561,478.494507 
	C948.856567,462.025330 948.886292,445.553558 948.836609,429.082764 
	C948.824097,424.951202 948.834595,420.819580 948.834595,415.910767 
	C942.176331,415.910767 935.929382,416.047394 929.691162,415.871552 
	C923.714600,415.703033 920.793884,412.644318 922.217041,407.446686 
	C922.783691,405.377411 925.540955,403.908020 927.987305,402.437561 
	C947.654663,402.782043 966.635620,402.858978 985.616638,402.899933 
	C986.059570,402.900909 986.503418,402.497742 986.946838,402.283081 
z"/>
<path fill="#403098" opacity="1.000000" stroke="none" 
	d="
M881.040771,484.795258 
	C875.946289,484.633301 874.108032,481.279053 873.870605,476.914673 
	C873.563782,471.277039 873.633057,465.616333 873.626160,459.965485 
	C873.606140,443.669037 873.528870,427.371613 873.680237,411.076508 
	C873.749634,403.605164 876.823792,400.351990 882.758423,400.720490 
	C886.488342,400.952057 889.129700,402.717743 889.903137,406.486053 
	C890.400330,408.908813 890.679443,411.420227 890.685852,413.892822 
	C890.731323,431.352692 890.674744,448.812836 890.672180,466.272888 
	C890.671936,467.735870 890.828552,469.198822 890.955078,471.410645 
	C896.229797,471.410645 901.314270,471.385681 906.398376,471.416931 
	C912.882019,471.456818 919.398315,471.189453 925.831848,471.790161 
	C928.235413,472.014587 931.327393,473.780731 932.530090,475.787903 
	C934.190979,478.559570 933.469177,481.953064 929.350647,484.021851 
	C914.095154,484.030029 899.694580,483.989288 885.294189,484.028778 
	C883.875671,484.032684 882.458557,484.528015 881.040771,484.795258 
z"/>
<path fill="#3E2F98" opacity="1.000000" stroke="none" 
	d="
M395.951050,402.282043 
	C400.175903,403.235474 402.340607,405.909271 401.603363,410.167480 
	C400.852295,414.505280 397.553070,415.912476 393.483368,415.911072 
	C387.521393,415.909027 381.559418,415.910553 374.873962,415.910553 
	C374.873962,417.988586 374.874054,419.739777 374.873932,421.490967 
	C374.872681,438.612457 374.902863,455.734039 374.834900,472.855255 
	C374.825134,475.320892 374.342773,477.784698 373.574646,480.686523 
	C372.558716,482.240723 372.047272,483.357758 371.535858,484.474762 
	C371.535858,484.474762 371.466614,484.431213 371.029694,484.341949 
	C365.799561,486.138580 361.929230,484.690491 358.691223,480.958130 
	C358.691223,480.958130 358.378723,480.646973 358.743835,480.238464 
	C359.074219,478.077789 359.006653,476.325592 359.009735,474.573486 
	C359.042267,456.079529 359.098267,437.585571 359.079712,419.091675 
	C359.079010,418.395477 358.385681,417.699982 358.015106,417.004181 
	C358.015106,417.004181 357.977478,416.978882 357.940247,416.813843 
	C357.810089,416.466827 357.721802,416.282593 357.638214,416.096130 
	C351.514404,416.034790 345.390656,415.968384 339.266785,415.913879 
	C335.304779,415.878632 331.909668,414.844238 331.040070,410.394714 
	C330.202576,406.109436 332.291138,403.457306 336.998505,402.432922 
	C356.661469,402.776031 375.639954,402.853668 394.618469,402.895538 
	C395.062195,402.896515 395.506836,402.495544 395.951050,402.282043 
z"/>
<path fill="#403198" opacity="1.000000" stroke="none" 
	d="
M118.953346,401.181610 
	C119.531075,401.267548 120.108810,401.353516 120.847763,402.082092 
	C122.001724,405.666962 123.848160,408.609222 123.848083,411.551392 
	C123.847618,430.050385 123.410263,448.549103 123.234879,467.049042 
	C123.225677,468.020355 124.287720,469.001862 124.851044,469.978638 
	C126.487053,470.453491 128.117340,471.314819 129.760025,471.339111 
	C138.855774,471.473724 147.954773,471.370850 157.052094,471.432068 
	C159.020584,471.445282 161.421707,471.163727 162.850845,472.144257 
	C164.931625,473.571869 167.267395,475.811157 167.765396,478.083374 
	C168.501343,481.441193 166.194870,483.951294 161.999695,484.589294 
	C147.133316,484.206238 132.950363,484.109100 118.767258,484.066315 
	C118.186546,484.064575 117.604294,484.574219 117.022751,484.845612 
	C111.110458,484.661438 108.502037,482.157837 108.318916,475.857178 
	C108.111214,468.710938 108.230965,461.554840 108.227219,454.403046 
	C108.219826,440.265350 108.085510,426.125183 108.338959,411.992035 
	C108.392204,409.022827 109.890610,406.079559 111.435440,403.006775 
	C114.416306,402.320038 116.684822,401.750824 118.953346,401.181610 
z"/>
<path fill="#D14F3F" opacity="1.000000" stroke="none" 
	d="
M210.914688,274.474091 
	C212.116653,276.546967 213.851288,278.897522 214.551697,281.523926 
	C217.748108,293.509613 220.683197,305.565582 223.647690,317.612183 
	C224.597275,321.470947 225.176880,325.426697 226.248154,329.247681 
	C227.020752,332.003418 228.225601,334.181366 232.038528,334.151398 
	C255.191528,333.969421 278.346649,334.061035 301.501038,334.040375 
	C302.466187,334.039490 303.431122,333.830750 305.089417,333.638458 
	C303.552002,327.305267 302.185944,321.241821 300.603912,315.235291 
	C293.103790,286.759155 285.574219,258.290710 277.997009,229.835007 
	C272.246185,208.238251 266.292999,186.694778 260.645477,165.071289 
	C256.213959,148.103699 252.222961,131.021393 247.835434,114.041931 
	C242.662872,94.024483 237.289169,74.058876 231.945786,54.086006 
	C231.574585,52.698547 230.711884,51.446133 230.111343,50.115757 
	C228.687927,46.962486 230.723846,41.793839 225.256042,41.034889 
	C221.712265,40.543007 218.072220,40.697308 214.474350,40.662189 
	C212.654144,40.644428 210.831833,40.938293 209.010361,40.939426 
	C179.026260,40.958054 149.041672,41.032097 119.058548,40.859375 
	C114.950493,40.835712 112.829025,41.815331 111.720253,46.031246 
	C105.654060,69.096909 99.422409,92.120277 93.065552,115.107834 
	C88.921738,130.092636 84.308708,144.948105 80.201157,159.942398 
	C76.580963,173.157623 73.592262,186.546799 69.918350,199.746063 
	C66.019981,213.751678 61.642838,227.624023 57.180191,241.754944 
	C60.306038,228.758621 63.599346,215.527451 67.171196,202.371887 
	C77.150665,165.616226 87.242035,128.890945 97.296242,92.155594 
	C101.865288,75.461510 106.505493,58.786541 110.972221,42.065182 
	C111.672279,39.444477 112.908455,38.769867 115.500885,38.775635 
	C152.159103,38.857239 188.817657,38.866329 225.475800,38.766705 
	C228.629150,38.758133 229.663681,39.935410 230.431305,42.861404 
	C245.923203,101.913750 261.538910,160.933609 277.128113,219.960419 
	C286.854187,256.787018 296.581635,293.613281 306.288086,330.445038 
	C306.698914,332.003998 306.903839,333.617188 307.282013,335.613464 
	C305.271851,335.725800 303.809448,335.878052 302.347015,335.878723 
	C278.519073,335.889740 254.690353,335.785889 230.864029,335.980408 
	C227.272324,336.009735 225.929657,334.798798 225.132599,331.548096 
	C220.495834,312.637787 215.707916,293.764557 210.914688,274.474091 
z"/>
<path fill="#403097" opacity="1.000000" stroke="none" 
	d="
M1003.443604,478.268280 
	C1003.326416,455.397034 1003.194641,432.953766 1003.288635,410.511444 
	C1003.317139,403.699463 1006.332397,400.633667 1011.926575,400.746277 
	C1017.271545,400.853882 1020.113098,404.004639 1020.133972,410.437561 
	C1020.206177,432.715790 1020.214966,454.994659 1020.108643,477.272675 
	C1020.081360,482.991913 1017.169128,486.246155 1012.466248,486.616516 
	C1007.628418,486.997559 1004.755920,484.455811 1003.443604,478.268280 
z"/>
<path fill="#D14F3F" opacity="1.000000" stroke="none" 
	d="
M56.617767,242.119537 
	C54.967796,250.607986 53.312412,259.387848 51.024525,267.999695 
	C45.338207,289.403534 39.360874,310.730103 33.522758,332.093781 
	C33.403278,332.531006 33.555676,333.042572 33.597652,333.825592 
	C35.121235,333.905579 36.586147,334.048431 38.051163,334.049469 
	C59.036400,334.064545 80.022163,333.986176 101.006409,334.131378 
	C104.664612,334.156708 106.931313,333.388184 107.894806,329.486938 
	C110.117790,320.486023 112.623856,311.554657 115.053062,302.605408 
	C115.436501,301.192810 116.018143,299.833984 116.819221,298.250122 
	C116.210815,302.727783 115.444061,307.442169 114.335999,312.074890 
	C112.676758,319.012115 110.881348,325.922211 108.884117,332.768066 
	C108.528450,333.987213 106.917824,335.723022 105.876625,335.730042 
	C81.123436,335.896881 56.368847,335.859680 30.691635,335.859680 
	C39.347496,304.277496 47.835991,273.305969 56.617767,242.119537 
z"/>
<path fill="#564C96" opacity="1.000000" stroke="none" 
	d="
M1145.537598,482.136414 
	C1153.919800,482.955048 1162.534546,484.674896 1171.183228,484.867035 
	C1181.542603,485.097260 1190.972168,481.113312 1199.080566,474.764282 
	C1200.902710,473.337555 1201.708862,469.876831 1201.910522,467.269501 
	C1202.333130,461.807312 1202.195435,456.284576 1202.002319,450.796722 
	C1201.805664,445.206207 1199.642944,443.129242 1193.936401,442.994263 
	C1187.446289,442.840729 1180.949707,442.945892 1174.455933,442.960754 
	C1167.544189,442.976593 1165.593750,446.278900 1168.939209,452.686890 
	C1167.849243,451.114929 1165.544678,448.924347 1165.894653,447.308472 
	C1166.348267,445.213104 1168.846924,442.071869 1170.585327,441.991974 
	C1179.827637,441.567291 1189.143311,441.560669 1198.345947,442.386200 
	C1200.319458,442.563263 1203.190796,446.638214 1203.466064,449.156189 
	C1204.202637,455.892944 1204.298950,462.821960 1203.525513,469.545319 
	C1203.185547,472.500916 1200.756104,476.210815 1198.181885,477.753113 
	C1181.571899,487.704742 1164.066162,490.127747 1145.537598,482.136414 
z"/>
<path fill="#FDDFD6" opacity="1.000000" stroke="none" 
	d="
M919.696533,38.773643 
	C881.591187,39.095280 843.248596,39.069145 804.442261,38.962818 
	C805.382141,38.576611 806.785339,38.005459 808.189392,38.003330 
	C844.143005,37.948891 880.096680,37.949516 916.050354,37.968620 
	C917.186707,37.969223 918.322998,38.266762 919.696533,38.773643 
z"/>
<path fill="#564C96" opacity="1.000000" stroke="none" 
	d="
M1195.184937,410.462952 
	C1192.822998,409.588104 1190.104004,408.731262 1187.901245,407.153625 
	C1177.426270,399.651489 1165.803345,401.257172 1154.448364,403.336456 
	C1149.193848,404.298645 1144.368774,407.606201 1138.962646,409.823853 
	C1147.092896,401.829468 1157.741089,400.579224 1168.639893,400.571716 
	C1178.525513,400.564880 1187.710693,402.950226 1195.184937,410.462952 
z"/>
<path fill="#3D308B" opacity="1.000000" stroke="none" 
	d="
M193.609909,465.201111 
	C194.331665,464.475708 195.498245,463.123016 196.690948,463.099548 
	C205.770538,462.921082 214.861618,462.823273 223.933151,463.147400 
	C225.841171,463.215576 228.678589,464.698425 229.363708,466.277435 
	C231.207809,470.527649 232.120346,475.182068 233.129883,479.873230 
	C231.304947,476.325073 229.577393,472.640228 228.258987,468.814331 
	C227.294006,466.014038 225.745193,465.063782 222.787125,465.119293 
	C213.216614,465.298828 203.640671,465.188263 193.609909,465.201111 
z"/>
<path fill="#564C96" opacity="1.000000" stroke="none" 
	d="
M1188.147705,466.329102 
	C1187.749146,467.505981 1187.631958,470.012512 1186.632446,470.435791 
	C1174.893555,475.407227 1162.959839,477.473175 1151.091797,470.862671 
	C1149.724121,470.100891 1149.014771,468.157288 1147.993652,466.391876 
	C1160.137451,475.775665 1177.992554,476.073944 1188.147705,466.329102 
z"/>
<path fill="#564C96" opacity="1.000000" stroke="none" 
	d="
M1181.743408,419.728027 
	C1183.552979,421.204132 1185.694336,422.816528 1187.345825,424.830658 
	C1190.655518,428.867279 1193.181396,429.238953 1197.465698,426.459106 
	C1200.319214,424.607605 1200.660522,422.526001 1199.242310,419.740143 
	C1197.848633,417.002441 1196.494385,414.244690 1195.202148,411.109985 
	C1197.216919,414.105286 1199.770996,417.290436 1200.920654,420.920410 
	C1202.161133,424.837189 1200.009521,428.115906 1196.122925,429.673676 
	C1192.418823,431.158356 1189.225220,429.920624 1186.795654,426.924957 
	C1185.020264,424.735870 1183.492188,422.346222 1181.743408,419.728027 
z"/>
<path fill="#423786" opacity="1.000000" stroke="none" 
	d="
M124.955147,469.522095 
	C124.287720,469.001862 123.225677,468.020355 123.234879,467.049042 
	C123.410263,448.549103 123.847618,430.050385 123.848083,411.551392 
	C123.848160,408.609222 122.001724,405.666962 121.009621,402.335083 
	C124.967728,403.924683 125.094231,407.568451 125.091110,411.286133 
	C125.074928,430.545929 125.068848,449.805756 124.955147,469.522095 
z"/>
<path fill="#564C96" opacity="1.000000" stroke="none" 
	d="
M1136.715576,411.169434 
	C1135.089600,414.405853 1133.079956,417.711639 1131.231567,421.105194 
	C1126.144043,430.445343 1123.947021,440.332489 1125.784912,450.951691 
	C1125.865234,451.415192 1125.691772,451.922577 1125.389648,452.678284 
	C1122.205444,437.248993 1124.829102,423.054047 1136.715576,411.169434 
z"/>
<path fill="#3B2F81" opacity="1.000000" stroke="none" 
	d="
M688.891541,479.499573 
	C688.506409,479.343658 688.050781,478.741119 688.051758,478.139343 
	C688.090820,454.336090 688.171326,430.532928 688.479553,406.395477 
	C688.910706,408.029236 689.284302,409.997650 689.280029,411.965240 
	C689.231445,434.327972 689.125000,456.690613 688.891541,479.499573 
z"/>
<path fill="#403583" opacity="1.000000" stroke="none" 
	d="
M787.453064,404.118591 
	C788.097229,404.300629 788.669495,404.682404 788.658142,405.046021 
	C788.137268,421.768188 787.533325,438.487854 787.035278,455.210632 
	C786.963318,457.628754 787.371338,460.061188 787.269409,462.742615 
	C786.641235,461.410339 786.015137,459.824341 786.004639,458.234283 
	C785.897400,441.993713 785.852234,425.752380 785.910583,409.511658 
	C785.916809,407.776306 786.690979,406.043732 787.453064,404.118591 
z"/>
<path fill="#433882" opacity="1.000000" stroke="none" 
	d="
M357.925903,417.464966 
	C358.385681,417.699982 359.079010,418.395477 359.079712,419.091675 
	C359.098267,437.585571 359.042267,456.079529 359.009735,474.573486 
	C359.006653,476.325592 359.074219,478.077789 358.755035,480.018250 
	C358.203278,478.241760 357.837341,476.277313 357.833801,474.312195 
	C357.799774,455.516785 357.827026,436.721252 357.925903,417.464966 
z"/>
<path fill="#564C96" opacity="1.000000" stroke="none" 
	d="
M1141.730469,449.575867 
	C1141.127808,445.996674 1139.629761,441.798309 1140.246826,437.938141 
	C1141.451782,430.400665 1143.067871,422.648010 1150.786621,418.075989 
	C1142.238159,426.671295 1140.820923,437.530762 1141.730469,449.575867 
z"/>
<path fill="#3C3083" opacity="1.000000" stroke="none" 
	d="
M986.495544,402.160583 
	C986.503418,402.497742 986.059570,402.900909 985.616638,402.899933 
	C966.635620,402.858978 947.654663,402.782043 928.350586,402.453796 
	C947.366455,402.144684 966.705322,402.091370 986.495544,402.160583 
z"/>
<path fill="#3B2F82" opacity="1.000000" stroke="none" 
	d="
M395.498901,402.161316 
	C395.506836,402.495544 395.062195,402.896515 394.618469,402.895538 
	C375.639954,402.853668 356.661469,402.776031 337.360107,402.448914 
	C356.373749,402.143616 375.710266,402.092102 395.498901,402.161316 
z"/>
<path fill="#FDDFD6" opacity="1.000000" stroke="none" 
	d="
M766.430664,223.210770 
	C765.728577,233.243607 764.713135,243.493362 763.697693,253.743134 
	C763.129028,253.751709 762.560303,253.760284 761.991577,253.768845 
	C761.690857,252.092041 761.390076,250.415222 761.165894,248.345520 
	C762.153076,245.208450 763.462524,242.524002 763.884155,239.706680 
	C764.581299,235.048264 764.667908,230.300613 765.110779,225.599915 
	C765.181458,224.850876 765.768860,224.150543 766.430664,223.210770 
z"/>
<path fill="#3C327B" opacity="1.000000" stroke="none" 
	d="
M881.495483,484.905518 
	C882.458557,484.528015 883.875671,484.032684 885.294189,484.028778 
	C899.694580,483.989288 914.095154,484.030029 929.004150,484.072601 
	C927.776550,484.416443 926.041626,485.005219 924.304138,485.012909 
	C910.186401,485.075348 896.068298,485.028992 881.495483,484.905518 
z"/>
<path fill="#FDDFD6" opacity="1.000000" stroke="none" 
	d="
M803.475098,38.991676 
	C802.025269,47.072628 800.212646,55.215267 798.193237,63.670433 
	C797.708191,63.588970 797.121521,63.119938 797.196533,62.811932 
	C799.126465,54.882175 801.125366,46.969231 803.475098,38.991676 
z"/>
<path fill="#3C327A" opacity="1.000000" stroke="none" 
	d="
M117.483330,484.932861 
	C117.604294,484.574219 118.186546,484.064575 118.767258,484.066315 
	C132.950363,484.109100 147.133316,484.206238 161.637878,484.549438 
	C147.287613,484.876862 132.615753,484.948517 117.483330,484.932861 
z"/>
<path fill="#D14F3F" opacity="1.000000" stroke="none" 
	d="
M117.402069,297.950684 
	C119.187180,290.113739 121.283760,282.121735 123.755699,274.092987 
	C121.991882,281.969360 119.852715,289.882507 117.402069,297.950684 
z"/>
<path fill="#FDDFD6" opacity="1.000000" stroke="none" 
	d="
M783.528198,132.236526 
	C782.371094,139.155121 780.944885,146.308929 779.256348,153.722412 
	C780.415710,146.811951 781.837402,139.641846 783.528198,132.236526 
z"/>
<path fill="#FDDFD6" opacity="1.000000" stroke="none" 
	d="
M759.301514,227.728729 
	C757.737732,220.596207 756.434692,213.207596 755.213806,205.407043 
	C756.515808,210.044296 757.849365,215.069885 758.905396,220.153091 
	C759.400391,222.535614 759.360107,225.029312 759.301514,227.728729 
z"/>
<path fill="#FDDFD6" opacity="1.000000" stroke="none" 
	d="
M789.433472,103.168198 
	C788.763062,108.296539 787.768188,113.593880 786.520874,119.192787 
	C786.385071,113.962685 785.706421,108.291176 789.433472,103.168198 
z"/>
<path fill="#FDDFD6" opacity="1.000000" stroke="none" 
	d="
M750.009033,177.619141 
	C748.369202,171.631393 746.781189,165.205872 745.238403,158.387894 
	C746.875977,164.390762 748.468384,170.786072 750.009033,177.619141 
z"/>
<path fill="#564C96" opacity="1.000000" stroke="none" 
	d="
M1147.884521,465.672546 
	C1142.815552,462.977509 1141.429443,458.090973 1141.620605,452.284729 
	C1143.839966,456.456848 1145.815552,460.894806 1147.884521,465.672546 
z"/>
<path fill="#433882" opacity="1.000000" stroke="none" 
	d="
M358.714264,481.331726 
	C361.929230,484.690491 365.799561,486.138580 371.010742,484.378174 
	C366.394745,488.236694 362.225067,487.317291 358.714264,481.331726 
z"/>
<path fill="#FDDFD6" opacity="1.000000" stroke="none" 
	d="
M773.460083,179.079819 
	C773.052185,183.791840 772.278259,188.608261 771.254639,193.712921 
	C771.701355,189.062180 772.397705,184.123199 773.460083,179.079819 
z"/>
<path fill="#564C96" opacity="1.000000" stroke="none" 
	d="
M1172.463989,453.965942 
	C1177.334106,453.088318 1182.654419,451.672821 1188.052612,454.238556 
	C1183.069092,454.404510 1177.989990,454.248383 1172.463989,453.965942 
z"/>
<path fill="#FDDFD6" opacity="1.000000" stroke="none" 
	d="
M768.456299,209.082397 
	C768.329529,212.752289 767.836182,216.530151 767.154541,220.649078 
	C767.340698,217.056900 767.715149,213.123627 768.456299,209.082397 
z"/>
<path fill="#FDDFD6" opacity="1.000000" stroke="none" 
	d="
M797.366943,66.197021 
	C796.874146,70.112358 796.084045,74.229744 795.086060,78.660309 
	C795.608765,74.782021 796.339172,70.590553 797.366943,66.197021 
z"/>
<path fill="#3D308B" opacity="1.000000" stroke="none" 
	d="
M187.238983,479.767761 
	C187.806946,477.125305 188.644424,474.272552 189.754089,471.208801 
	C189.187027,473.851044 188.347763,476.704224 187.238983,479.767761 
z"/>
<path fill="#FDDFD6" opacity="1.000000" stroke="none" 
	d="
M776.518372,165.245789 
	C776.046326,169.169083 775.312683,173.338287 774.296021,177.755920 
	C774.760925,173.833466 775.508850,169.662567 776.518372,165.245789 
z"/>
<path fill="#FDDFD6" opacity="1.000000" stroke="none" 
	d="
M792.445129,90.188187 
	C792.052185,93.558830 791.355530,97.126015 790.402222,100.975876 
	C790.810791,97.633942 791.476074,94.009331 792.445129,90.188187 
z"/>
<path fill="#564C96" opacity="1.000000" stroke="none" 
	d="
M1153.326782,416.847290 
	C1154.299072,413.497314 1156.921387,413.098969 1160.379639,413.861572 
	C1158.376343,414.850342 1156.031250,415.825958 1153.326782,416.847290 
z"/>
<path fill="#564C96" opacity="1.000000" stroke="none" 
	d="
M1188.150513,455.358673 
	C1188.469116,457.216827 1188.708862,459.515137 1188.601807,461.924500 
	C1188.193970,459.956635 1188.132812,457.877716 1188.150513,455.358673 
z"/>
<path fill="#FDDFD6" opacity="1.000000" stroke="none" 
	d="
M785.647095,121.227661 
	C785.473328,123.829147 785.017334,126.650024 784.298462,129.736374 
	C784.478760,127.150253 784.921814,124.298653 785.647095,121.227661 
z"/>
<path fill="#FDDFD6" opacity="1.000000" stroke="none" 
	d="
M753.236084,191.777130 
	C752.345459,189.589828 751.720520,187.179581 751.164551,184.383972 
	C751.989502,186.517136 752.745667,189.035660 753.236084,191.777130 
z"/>
<path fill="#FDDFD6" opacity="1.000000" stroke="none" 
	d="
M755.190674,201.810486 
	C754.323608,199.603424 753.722717,197.189545 753.173157,194.387421 
	C753.968567,196.534012 754.712646,199.068848 755.190674,201.810486 
z"/>
<path fill="#564C96" opacity="1.000000" stroke="none" 
	d="
M1171.363037,413.971069 
	C1173.044800,414.232117 1175.028320,414.656921 1177.025391,415.395081 
	C1175.247559,415.183868 1173.456177,414.659363 1171.363037,413.971069 
z"/>
<path fill="#FDDFD6" opacity="1.000000" stroke="none" 
	d="
M794.334717,81.041504 
	C794.234192,83.094643 793.806641,85.247040 793.172607,87.695282 
	C793.313354,85.707672 793.660583,83.424217 794.334717,81.041504 
z"/>
<path fill="#3D308B" opacity="1.000000" stroke="none" 
	d="
M190.432755,470.171082 
	C190.880615,468.579071 191.645874,466.858337 192.804199,465.148224 
	C192.381561,466.786682 191.565872,468.414520 190.432755,470.171082 
z"/>
<path fill="#FDDFD6" opacity="1.000000" stroke="none" 
	d="
M769.398682,202.039642 
	C769.590942,203.419495 769.451965,204.884857 769.128296,206.666870 
	C768.984802,205.364044 769.026123,203.744614 769.398682,202.039642 
z"/>
<path fill="#423786" opacity="1.000000" stroke="none" 
	d="
M118.560974,401.033508 
	C116.684822,401.750824 114.416306,402.320038 111.718414,402.829987 
	C113.582230,402.142273 115.875420,401.513855 118.560974,401.033508 
z"/>
<path fill="#FDDFD6" opacity="1.000000" stroke="none" 
	d="
M778.399231,156.023071 
	C778.573425,157.096405 778.432434,158.245560 778.089111,159.681213 
	C777.952515,158.678101 778.018311,157.388489 778.399231,156.023071 
z"/>
<path fill="#564C96" opacity="1.000000" stroke="none" 
	d="
M1125.403076,455.305481 
	C1125.926758,456.239716 1126.396362,457.522247 1126.798340,459.197388 
	C1126.270142,458.277924 1125.809692,456.965851 1125.403076,455.305481 
z"/>
<path fill="#433882" opacity="1.000000" stroke="none" 
	d="
M371.829071,484.369019 
	C372.047272,483.357758 372.558716,482.240723 373.418396,481.080139 
	C373.218506,482.112122 372.670410,483.187683 371.829071,484.369019 
z"/>
<path fill="#FDDFD6" opacity="1.000000" stroke="none" 
	d="
M760.967041,241.795746 
	C760.594360,240.404663 760.298706,238.604614 760.079346,236.410278 
	C760.451782,237.806244 760.747986,239.596512 760.967041,241.795746 
z"/>
<path fill="#FDDFD6" opacity="1.000000" stroke="none" 
	d="
M770.452881,197.129593 
	C770.577271,197.817474 770.455078,198.644562 770.136475,199.724823 
	C770.028870,199.074936 770.117554,198.171875 770.452881,197.129593 
z"/>
<path fill="#FDDFD6" opacity="1.000000" stroke="none" 
	d="
M760.014526,233.677734 
	C759.648376,232.928528 759.332214,231.821182 759.102905,230.359863 
	C759.481323,231.110443 759.772827,232.215012 760.014526,233.677734 
z"/>
<path fill="#564C96" opacity="1.000000" stroke="none" 
	d="
M1177.898438,416.389099 
	C1178.465210,416.477264 1179.182373,416.819641 1179.959717,417.485352 
	C1179.362915,417.420197 1178.705811,417.031769 1177.898438,416.389099 
z"/>
<path fill="#FDDFD6" opacity="1.000000" stroke="none" 
	d="
M750.928589,181.924728 
	C750.594604,181.697205 750.325317,181.157715 750.118225,180.310608 
	C750.451355,180.539566 750.722351,181.076172 750.928589,181.924728 
z"/>
<path fill="#564C96" opacity="1.000000" stroke="none" 
	d="
M1161.221313,413.898010 
	C1161.235596,413.727112 1161.514526,413.609802 1161.896484,413.638550 
	C1161.828369,413.840302 1161.657227,413.895966 1161.221313,413.898010 
z"/>
<path fill="#433882" opacity="1.000000" stroke="none" 
	d="
M357.626526,416.260803 
	C357.721802,416.282593 357.810089,416.466827 357.952942,416.795044 
	C357.788177,416.833374 357.658844,416.661438 357.626526,416.260803 
z"/>
<path fill="#D14F3F" opacity="1.000000" stroke="none" 
	d="
M125.244034,273.888062 
	C125.259262,273.706726 125.535599,273.588348 125.911270,273.619507 
	C125.842125,273.829712 125.673645,273.890381 125.244034,273.888062 
z"/>
<path fill="#564C96" opacity="1.000000" stroke="none" 
	d="
M1180.654297,418.472351 
	C1180.906738,418.389160 1181.250244,418.574677 1181.621094,419.068787 
	C1181.347534,419.165222 1181.046265,418.953125 1180.654297,418.472351 
z"/>
<path fill="#FCF8F8" opacity="1.000000" stroke="none" 
	d="
M172.899353,106.958305 
	C180.552979,139.842361 188.156952,172.299484 195.863586,205.194855 
	C177.947418,205.194855 160.252258,205.194855 142.141403,205.194855 
	C151.480072,166.947388 160.787949,128.826019 169.931168,91.379051 
	C170.775864,95.764465 171.812790,101.147926 172.899353,106.958305 
z"/>
<path fill="#FDFBFB" opacity="1.000000" stroke="none" 
	d="
M474.148193,116.763901 
	C487.394226,124.783554 489.152802,137.225418 487.723907,150.557159 
	C486.303589,163.808945 478.520203,172.610550 466.036530,176.558060 
	C459.307037,178.686005 452.091766,179.831024 445.029205,180.223450 
	C434.277283,180.820801 423.467682,180.379852 412.368805,180.379852 
	C412.368805,157.437897 412.368805,134.701797 412.368805,111.708969 
	C413.312500,111.536118 414.252899,111.212814 415.192688,111.214577 
	C427.685150,111.237999 440.218475,110.721237 452.654114,111.590561 
	C459.789551,112.089363 466.766479,114.855782 474.148193,116.763901 
z"/>
<path fill="#FAFAFD" opacity="1.000000" stroke="none" 
	d="
M577.000977,417.835114 
	C590.513733,427.173615 590.798645,454.610046 580.640808,466.066040 
	C569.922241,478.154480 549.485779,474.638519 543.269165,459.198273 
	C539.010193,448.620361 539.069031,437.676208 543.543335,427.128113 
	C549.037537,414.175598 563.714050,410.127838 577.000977,417.835114 
z"/>
<path fill="#F2F1FB" opacity="1.000000" stroke="none" 
	d="
M221.543167,451.993683 
	C213.636383,452.348419 205.923416,452.348419 197.555649,452.348419 
	C201.566956,441.140411 205.428909,430.349762 209.796341,418.146698 
	C214.096252,430.207489 217.916626,440.923218 221.543167,451.993683 
z"/>
<path fill="#FBFBFE" opacity="1.000000" stroke="none" 
	d="
M74.403084,418.651184 
	C80.873695,428.967285 76.820099,438.254791 65.247459,439.606628 
	C59.731693,440.250885 54.078342,439.717377 48.236240,439.717377 
	C48.236240,431.478699 48.236240,423.425781 48.236240,414.729736 
	C57.068481,415.285431 66.085258,412.732117 74.403084,418.651184 
z"/>
</svg>